<svg id="f50adab5-75c8-452a-82c3-2123e38ee00c" data-name="Layer 1" xmlns="http://www.w3.org/2000/svg" width="120" height="120" viewBox="0 0 120 120"><defs><style>.e5156f82-dc46-49c2-be3d-774a41e99621{fill:#fff;}</style></defs><rect class="e5156f82-dc46-49c2-be3d-774a41e99621" width="120" height="120"/><path d="M0,60v60H120V0H0ZM69.51,27.92C79.85,29.72,88,33.51,98,41c4.94,3.74,15,13.39,16.48,15.93a5.93,5.93,0,0,1,.37,5.54c-1.71,3.32-10.89,12-18.28,17.26a94.64,94.64,0,0,1-19,10c-7.34,2.4-10.34,2.86-18.69,2.81-8.68,0-13.07-.87-20.17-3.83C28.38,84.37,16.43,75.32,7.57,65.22,5,62.26,4.62,61.57,4.62,60S5,57.74,7.34,55a91,91,0,0,1,6.74-6.84C32,31.85,51.37,24.78,69.51,27.92Z"/><path d="M54.05,37.66A23.67,23.67,0,0,0,38.26,52.43c-1.43,3.88-1.43,11.26,0,15.14A23.07,23.07,0,0,0,60,83.08a21.9,21.9,0,0,0,16.48-6.74,22.81,22.81,0,0,0,0-32.63,22.06,22.06,0,0,0-10.29-6.09A28.42,28.42,0,0,0,54.05,37.66Zm10.61,6.46A17.51,17.51,0,0,1,75.92,54.88a18.48,18.48,0,0,1-.37,11.17,15.71,15.71,0,0,1-6,7.52,16.36,16.36,0,0,1-23.86-5.82,12.36,12.36,0,0,1-1.75-6.6c-.23-4.38.28-6.5,2.31-9.92A16.47,16.47,0,0,1,64.66,44.12Z"/><path d="M56.86,50.45c-3.64,1.33-6.51,5-6.64,8.58,0,2.12.69,3.28,2.16,3.28s2.08-.88,2.4-3a5.87,5.87,0,0,1,4.57-4.66,6.21,6.21,0,0,0,2.4-.79c.7-.55.74-2.72,0-3.46S58.85,49.75,56.86,50.45Z"/></svg>