<?xml version="1.0" standalone="no"?>
<!DOCTYPE svg PUBLIC "-//W3C//DTD SVG 20010904//EN"
 "http://www.w3.org/TR/2001/REC-SVG-20010904/DTD/svg10.dtd">
<svg version="1.0" xmlns="http://www.w3.org/2000/svg"
 width="260.000000pt" height="260.000000pt" viewBox="0 0 260.000000 260.000000"
 preserveAspectRatio="xMidYMid meet">
<metadata>
Created by potrace 1.14, written by Peter Selinger 2001-2017
</metadata>
<g transform="translate(0.000000,260.000000) scale(0.100000,-0.100000)"
fill="#000000" stroke="none">
<path d="M0 1300 l0 -1300 1300 0 1300 0 0 1300 0 1300 -1300 0 -1300 0 0
-1300z m1506 695 c224 -39 401 -121 617 -283 107 -81 324 -290 357 -345 22
-36 26 -87 8 -120 -37 -72 -236 -259 -396 -374 -103 -74 -307 -181 -412 -216
-159 -52 -224 -62 -405 -61 -188 1 -283 19 -437 83 -223 93 -482 289 -674 508
-55 64 -64 79 -64 113 0 34 9 49 59 108 33 38 98 105 146 148 388 354 808 507
1201 439z"/>
<path d="M1171 1784 c-154 -41 -286 -164 -342 -320 -31 -84 -31 -244 0 -328
74 -204 259 -336 471 -336 145 0 254 45 357 146 199 196 199 512 1 707 -71 70
-138 109 -223 132 -73 19 -192 18 -264 -1z m230 -140 c109 -31 205 -123 244
-233 23 -66 19 -175 -8 -242 -31 -74 -68 -120 -130 -163 -179 -121 -416 -64
-517 126 -28 53 -35 76 -38 143 -5 95 6 141 50 215 79 132 249 198 399 154z"/>
<path d="M1232 1507 c-79 -29 -141 -109 -144 -186 -1 -46 15 -71 47 -71 29 0
45 19 52 65 8 49 50 92 99 101 21 3 45 11 52 17 15 12 16 59 0 75 -15 15 -63
14 -106 -1z"/>
</g>
</svg>
